<svg width="833" height="600" viewBox="0 0 833 600" fill="none" xmlns="http://www.w3.org/2000/svg">
<rect width="833" height="600" fill="white"/>
<path fill-rule="evenodd" clip-rule="evenodd" d="M388.135 275.732C383.596 231.724 397.146 191.052 421.549 165L462.697 179.984C436.36 204.845 421.36 245.22 425.87 288.953C430.852 337.268 458.309 376.711 494.108 393.485C494.225 393.409 494.342 393.333 494.459 393.257C458.95 379.047 441.185 326.785 454.536 271.69C463.315 235.465 483.492 206.487 507.105 191.916L531.041 214.297C506.437 227.431 485.359 255.8 476.636 291.795C466.946 331.785 475.122 370.389 495.179 392.785C495.378 392.653 495.577 392.52 495.775 392.386C495.635 392.584 495.493 392.781 495.352 392.977C495.641 393.297 495.932 393.614 496.226 393.928C495.813 393.78 495.403 393.626 494.994 393.468C494.916 393.575 494.838 393.681 494.76 393.788C495.177 393.979 495.595 394.168 496.015 394.353C496.144 394.356 496.273 394.358 496.402 394.36C496.339 394.387 496.276 394.414 496.213 394.441C496.328 394.492 496.442 394.542 496.557 394.592C496.32 394.594 496.084 394.596 495.848 394.596C495.038 394.937 494.225 395.264 493.407 395.577C461.631 436.673 401.978 447.565 354.68 419.079C323.3 400.18 304.698 368.367 302 335.281L335.89 309.704C336.678 343.743 354.235 376.575 385.42 395.356C417.438 414.64 455.832 414.299 486.722 397.826C438.969 411.678 381.141 382.581 350.599 326.346C329.479 287.459 326.347 244.692 338.864 211.255L382.61 209.261C367.85 242.342 369.528 285.391 390.516 324.034C408.097 356.404 435.646 379.091 465.16 388.913C425.304 373.807 393.739 330.073 388.135 275.732Z" fill="#D80000"/>
</svg>
