<svg width="652" height="270" viewBox="0 0 652 270" fill="none" xmlns="http://www.w3.org/2000/svg">
<path fill-rule="evenodd" clip-rule="evenodd" d="M86.1346 110.732C81.5964 66.724 95.1461 26.0516 119.549 0L160.697 14.9845C134.36 39.8454 119.36 80.2198 123.87 123.953C128.852 172.268 156.309 211.711 192.108 228.485C192.225 228.409 192.342 228.333 192.459 228.257C156.95 214.047 139.185 161.785 152.536 106.69C161.315 70.465 181.492 41.4871 205.105 26.9156L229.041 49.2965C204.437 62.4306 183.359 90.8003 174.636 126.795C164.946 166.785 173.122 205.389 193.179 227.785C193.378 227.653 193.577 227.52 193.775 227.386C193.635 227.584 193.493 227.781 193.352 227.977C193.641 228.297 193.932 228.614 194.226 228.928C193.813 228.78 193.403 228.626 192.994 228.468C192.916 228.575 192.838 228.681 192.76 228.788C193.177 228.979 193.595 229.168 194.015 229.353C194.144 229.356 194.273 229.358 194.402 229.36C194.339 229.387 194.276 229.414 194.213 229.441C194.328 229.492 194.442 229.542 194.557 229.592C194.32 229.594 194.084 229.596 193.848 229.596C193.038 229.937 192.225 230.264 191.407 230.577C159.631 271.673 99.9782 282.565 52.6804 254.079C21.3004 235.18 2.69831 203.367 0 170.281L33.89 144.704C34.6779 178.743 52.2354 211.575 83.4195 230.356C115.438 249.64 153.832 249.299 184.722 232.826C136.969 246.678 79.1407 217.581 48.5988 161.346C27.4786 122.459 24.3469 79.6922 36.864 46.2552L80.6102 44.2612C65.8501 77.3422 67.5281 120.391 88.5162 159.034C106.097 191.404 133.646 214.091 163.16 223.913C123.304 208.807 91.7386 165.073 86.1346 110.732Z" fill="#D80000"/>
<path d="M242.872 131.84H256.888V161.504L284.248 131.84H301.816L277.72 157.376L302.68 200H285.976L267.832 167.744L256.888 179.264V200H242.872V131.84ZM320.682 201.344C316.074 201.344 312.298 200 309.354 197.312C306.41 194.624 304.938 191.136 304.938 186.848C304.938 181.92 306.794 177.984 310.506 175.04C314.282 172.096 319.914 170.624 327.402 170.624H335.754V170.24C335.754 164.864 332.362 162.176 325.578 162.176C322.506 162.176 319.338 162.848 316.074 164.192C312.874 165.536 310.25 167.2 308.202 169.184V156.416C310.314 154.88 313.162 153.536 316.746 152.384C320.33 151.232 324.042 150.656 327.882 150.656C335.114 150.656 340.458 152.48 343.914 156.128C347.37 159.712 349.098 164.608 349.098 170.816V195.584C349.098 197.056 349.29 198.528 349.674 200H336.138V191.936C334.73 194.752 332.746 197.024 330.186 198.752C327.626 200.48 324.458 201.344 320.682 201.344ZM324.522 191.744C327.082 191.744 329.354 190.816 331.338 188.96C333.322 187.104 334.794 184.768 335.754 181.952V178.976H328.65C325.13 178.976 322.538 179.584 320.874 180.8C319.21 182.016 318.378 183.712 318.378 185.888C318.378 187.68 318.922 189.12 320.01 190.208C321.162 191.232 322.666 191.744 324.522 191.744ZM358.838 188.672L385.334 162.944H359.414V152.192H400.694V163.52L373.91 189.248H401.174V200H358.838V188.672ZM411.307 152.192H424.939V200H411.307V152.192ZM418.123 144.512C415.755 144.512 413.803 143.808 412.267 142.4C410.795 140.928 410.059 139.104 410.059 136.928C410.059 134.752 410.795 132.96 412.267 131.552C413.803 130.08 415.755 129.344 418.123 129.344C420.427 129.344 422.315 130.08 423.787 131.552C425.323 132.96 426.091 134.752 426.091 136.928C426.091 139.104 425.323 140.928 423.787 142.4C422.315 143.808 420.427 144.512 418.123 144.512Z" fill="#7F0808"/>
<path d="M456.622 131.84H482.542C490.67 131.84 496.91 133.824 501.262 137.792C505.614 141.696 507.79 146.848 507.79 153.248C507.79 157.344 506.766 160.992 504.718 164.192C502.67 167.328 499.662 169.792 495.694 171.584C491.79 173.376 487.086 174.272 481.582 174.272H470.638V200H456.622V131.84ZM481.006 162.944C485.23 162.944 488.398 162.08 490.51 160.352C492.686 158.624 493.774 156.192 493.774 153.056C493.774 149.984 492.75 147.584 490.702 145.856C488.654 144.064 485.486 143.168 481.198 143.168H470.638V162.944H481.006ZM550.57 201.632C543.594 201.632 537.322 200.096 531.754 197.024C526.25 193.888 521.93 189.6 518.794 184.16C515.722 178.656 514.186 172.544 514.186 165.824C514.186 159.104 515.722 153.056 518.794 147.68C521.93 142.24 526.25 137.984 531.754 134.912C537.322 131.776 543.594 130.208 550.57 130.208C557.546 130.208 563.786 131.776 569.29 134.912C574.858 137.984 579.178 142.272 582.25 147.776C585.386 153.216 586.954 159.296 586.954 166.016C586.954 172.736 585.386 178.816 582.25 184.256C579.178 189.632 574.858 193.888 569.29 197.024C563.786 200.096 557.546 201.632 550.57 201.632ZM550.57 188.576C554.794 188.576 558.538 187.616 561.802 185.696C565.066 183.712 567.626 181.024 569.482 177.632C571.338 174.176 572.266 170.304 572.266 166.016C572.266 161.664 571.338 157.76 569.482 154.304C567.626 150.848 565.066 148.16 561.802 146.24C558.538 144.256 554.794 143.264 550.57 143.264C546.41 143.264 542.666 144.256 539.338 146.24C536.074 148.16 533.514 150.848 531.658 154.304C529.802 157.696 528.874 161.536 528.874 165.824C528.874 170.176 529.802 174.08 531.658 177.536C533.514 180.992 536.074 183.712 539.338 185.696C542.666 187.616 546.41 188.576 550.57 188.576ZM622.075 201.632C616.571 201.632 611.419 200.736 606.619 198.944C601.819 197.088 598.299 195.008 596.059 192.704V175.424C598.619 179.584 602.331 182.88 607.195 185.312C612.059 187.744 616.795 188.96 621.403 188.96C625.115 188.96 627.931 188.288 629.851 186.944C631.835 185.536 632.827 183.648 632.827 181.28C632.827 179.872 632.539 178.688 631.963 177.728C631.387 176.768 630.203 175.84 628.411 174.944C626.619 174.048 623.931 173.12 620.347 172.16L614.683 170.624C608.603 169.024 603.963 166.688 600.763 163.616C597.627 160.544 596.059 156.288 596.059 150.848C596.059 147.2 597.083 143.808 599.131 140.672C601.243 137.472 604.283 134.944 608.251 133.088C612.219 131.168 616.955 130.208 622.459 130.208C626.875 130.208 631.003 130.848 634.843 132.128C638.683 133.344 641.723 134.816 643.963 136.544V152.288C642.171 149.856 639.323 147.712 635.419 145.856C631.515 143.936 627.387 142.976 623.035 142.976C619.003 142.976 615.931 143.712 613.819 145.184C611.707 146.656 610.651 148.448 610.651 150.56C610.651 151.84 610.939 152.928 611.515 153.824C612.155 154.656 613.371 155.488 615.163 156.32C617.019 157.088 619.803 157.952 623.515 158.912L629.179 160.448C635.131 161.984 639.675 164.352 642.811 167.552C645.947 170.752 647.515 175.04 647.515 180.416C647.515 184.384 646.491 188 644.443 191.264C642.395 194.464 639.451 196.992 635.611 198.848C631.771 200.704 627.259 201.632 622.075 201.632Z" fill="#D80000"/>
</svg>
